<svg width="53" height="55" viewBox="0 0 53 55" fill="none" xmlns="http://www.w3.org/2000/svg">
<path fill-rule="evenodd" clip-rule="evenodd" d="M47.7 0H5.3C2.37289 0 0 2.46243 0 5.5V49.5C0 52.5376 2.37289 55 5.3 55L26.5 55V34.2941H18.55V26.5294H26.5V22.3598C26.5 14.4656 30.4476 11 36.9011 11C39.9312 11 41.5615 11.2239 42.3535 11.3327L42.4 11.3391V18.7647H37.9984C35.2591 18.7647 34.45 20.2348 34.45 23.2113V26.5294H42.3313L41.2417 34.2941H34.45V55L47.7 55C50.6271 55 53 52.5376 53 49.5V5.5C53 2.46243 50.6271 0 47.7 0Z" fill="#1C2551"/>
</svg>
