<svg width="53" height="55" viewBox="0 0 53 55" fill="none" xmlns="http://www.w3.org/2000/svg">
<path fill-rule="evenodd" clip-rule="evenodd" d="M15.9 0H37.1C45.8813 0 53 7.3873 53 16.5V38.5C53 47.6127 45.8813 55 37.1 55H15.9C7.11867 55 0 47.6127 0 38.5V16.5C0 7.3873 7.11867 0 15.9 0ZM42.4 8.25C43.725 8.25 45.05 9.625 45.05 11C45.05 12.375 43.725 13.75 42.4 13.75C41.075 13.75 39.75 12.375 39.75 11C39.75 9.625 41.075 8.25 42.4 8.25ZM39.75 27.5C39.75 19.9169 33.8074 13.75 26.5 13.75C19.1926 13.75 13.25 19.9169 13.25 27.5C13.25 35.0831 19.1926 41.25 26.5 41.25C33.8074 41.25 39.75 35.0831 39.75 27.5ZM26.5 19.25C22.1093 19.25 18.55 22.9437 18.55 27.5C18.55 32.0564 22.1093 35.75 26.5 35.75C30.8907 35.75 34.45 32.0564 34.45 27.5C34.45 22.9437 30.8907 19.25 26.5 19.25Z" fill="#1C2551"/>
</svg>
