<svg width="53" height="55" viewBox="0 0 53 55" fill="none" xmlns="http://www.w3.org/2000/svg">
<path fill-rule="evenodd" clip-rule="evenodd" d="M47.7 0H5.3C2.37289 0 0 2.46243 0 5.5V49.5C0 52.5376 2.37289 55 5.3 55H47.7C50.6271 55 53 52.5376 53 49.5V5.5C53 2.46243 50.6271 0 47.7 0ZM10.6 12.5511C10.6 14.9256 12.4558 16.8547 14.7509 16.8547C17.0387 16.8547 18.8994 14.9256 18.8994 12.5511C18.8994 10.1791 17.0387 8.25 14.7509 8.25C12.4582 8.25 10.6 10.1766 10.6 12.5511ZM11.2637 44H18.3829V20.2501H11.2637V44ZM45.05 44H37.9356V32.4503C37.9356 29.6955 37.8873 26.1525 34.236 26.1525C30.5315 26.1525 29.962 29.1525 29.962 32.2501V44H22.8475V20.2501H29.6772V23.4953H29.7737C30.7246 21.6287 33.0462 19.6596 36.5093 19.6596C43.7178 19.6596 45.05 24.5787 45.05 30.9741V44Z" fill="#1C2551"/>
</svg>
