<?xml version="1.0" encoding="UTF-8"?>
<svg id="Layer_6" data-name="Layer 6" xmlns="http://www.w3.org/2000/svg" viewBox="0 0 185.91 191.69">
  <defs>
    <style>
      .cls-1 {
        fill: #bb8ec0;
      }

      .cls-1, .cls-2 {
        stroke-width: 0px;
      }

      .cls-2 {
        fill: #1c2551;
      }
    </style>
  </defs>
  <g>
    <path class="cls-2" d="M54.27,107.3c6.63-13.82,25.39-15.21,38.07-9.53,12.96,5.97,22.05,17.6,31.18,28.01,10.16,11.58,25.37,23.4,41.64,18.41,0,0,.18.47.18.47-10.65,4.72-22.86,1.17-32.38-4.62-9.58-5.79-17.11-14.61-24.63-22.62-8.77-9.66-19.32-19.06-33-19.32-7.88-.48-16.37,2.38-20.62,9.44,0,0-.44-.23-.44-.23h0Z"/>
    <path class="cls-1" d="M54.34,107.34c6.41-14.08,25.53-13.9,37.65-7.85,12.44,6.63,20.9,18.33,30.67,27.98,3.81,3.74,7.47,7.63,12.05,10.47,8.81,5.78,20.02,9.78,30.48,6.3,0,0,.18.47.18.47-13.19,5.56-28.44-.59-39.35-8.75-6.65-4.97-11.68-11.95-17.43-17.78-10.48-11.33-24.67-23.17-41.1-19.43-5.18,1.15-9.96,4.21-12.71,8.82,0,0-.44-.23-.44-.23h0Z"/>
    <path class="cls-2" d="M87.34,43.3c14.34-5.33,31.12,6.48,33.41,21.16,2.4,14.75-11.07,27.12-24.55,29.62-3.89.66-8.21.71-11.7-.78,7.53.18,14.52-2.91,20.27-7.41,5.27-4.19,9.92-10.18,10.39-16.92.32-14.39-13.51-26.21-27.83-25.67h0Z"/>
    <g>
      <path class="cls-2" d="M27.84,92.15c9.43-4.18,17.11-10.97,21.94-20.12,4.47-8.47,6.29-18.07,7.39-27.5.65-5.57,1.04-11.17,1.48-16.76.14-1.83-4.7-2.88-4.83-1.29-1.45,18.32-2.1,39.49-15.59,53.59-4.03,4.22-8.92,7.39-14.24,9.75-1.05.46-.2,1.5.42,1.88.93.58,2.37.92,3.42.45h0Z"/>
      <path class="cls-2" d="M54.28,24.08c-1.01,6.1-.56,12.55.02,18.67.68,7.28,1.83,14.63,3.96,21.64.91,2.98,2.01,6.02,3.73,8.64.77,1.18,3.83,2.07,4.66.6,3.9-6.9,6.49-14.56,9.09-22.02,2.94-8.46,5.67-17,8.94-25.35,1.52-3.89,3.15-7.76,5.21-11.4l-4.83-1.29c-5.61,20.07-5.14,40.8-3.29,61.37.52,5.75,1.11,11.48,1.64,17.23.15,1.61,5.01,2.55,4.83.61-1.86-20.06-4.4-40.25-1.88-60.38.74-5.92,1.92-11.78,3.53-17.53.49-1.75-4-2.75-4.83-1.29-3.9,6.9-6.49,14.56-9.09,22.02-2.94,8.46-5.67,17-8.94,25.35-1.52,3.89-3.15,7.76-5.21,11.4l4.66.6c-3.25-4.95-4.51-11.36-5.61-17.08-1.33-6.99-2.13-14.12-2.27-21.23-.06-3.08,0-6.2.5-9.25.29-1.77-4.56-2.94-4.83-1.29h0Z"/>
    </g>
    <path class="cls-2" d="M85.12,108.27c1.81,11.2,2.82,22.53,4.93,33.69.41,2.15.82,4.35,1.56,6.41.38,1.04,1.74,1.52,2.74,1.64.53.06,2.46.01,2.08-1.03-1.51-4.2-2.04-8.85-2.71-13.24-.92-6.04-1.7-12.1-2.52-18.16-.39-2.9-.79-5.81-1.26-8.7-.26-1.63-5.13-2.49-4.83-.61h0Z"/>
  </g>
  <g>
    <path class="cls-2" d="M21.19,174.41l-.04-10.64c0-.78,0-1.8-.2-2.39,1.08-.1,3.01-.14,4.15-.14,3.69,0,5.79,2.29,5.79,7.05s-2.1,7.01-5.71,7.01h-3.07c-.58,0-.92-.34-.92-.88ZM25.11,174.55c2.61,0,4.03-1.72,4.03-6.17s-1.42-6.39-4.03-6.39h-2.35l.02,12.55h2.33Z"/>
    <path class="cls-2" d="M34.03,174.63l-.02-10.86c0-.78-.06-1.56-.26-2.13.16-.14.48-.36.94-.36.54,0,.94.32.94.88v10.86c0,.78.04,1.56.26,2.14-.16.14-.48.36-.94.36-.54,0-.92-.34-.92-.88Z"/>
    <path class="cls-2" d="M38.72,168.38c0-4.65,2.04-7.18,5.57-7.18,2.04,0,3.89.92,3.89,1.98,0,.52-.48,1-1.3.92-.22-1.4-1.2-2.16-2.55-2.16-2.57,0-3.83,2.18-3.83,6.45s1.26,6.43,3.81,6.43,2.95-2.41,2.95-3.93-1.31-1.29-2.36-1.38c.1-.42.46-.85.98-.85,1.08,0,3.01-.3,3.01,1.93,0,2.51-1.36,4.97-4.65,4.97-3.55,0-5.53-2.54-5.53-7.17Z"/>
    <path class="cls-2" d="M135.17,168.9c0-4.65,2.04-7.18,5.57-7.18,2.04,0,3.89.92,3.89,1.98,0,.52-.48,1-1.3.92-.22-1.4-1.2-2.16-2.55-2.16-2.57,0-3.83,2.18-3.83,6.45s1.26,6.43,3.81,6.43,2.95-2.41,2.95-3.93-1.31-1.29-2.36-1.38c.1-.42.46-.85.98-.85,1.08,0,3.01-.3,3.01,1.93,0,2.51-1.36,4.97-4.65,4.97-3.55,0-5.53-2.54-5.53-7.17Z"/>
    <path class="cls-2" d="M51.95,174.63l-.02-10.86c0-.78-.06-1.56-.26-2.13.16-.14.48-.36.94-.36.54,0,.94.32.94.88v10.86c0,.78.04,1.56.26,2.14-.16.14-.48.36-.94.36-.54,0-.92-.34-.92-.88Z"/>
    <path class="cls-2" d="M65.63,162.94c-1.17-.14-2.38-.13-3.69-.14l.02,10.34c0,.78.04,1.57.26,2.15-.16.14-.48.36-.94.36-.54,0-.92-.34-.92-.88l-.02-11.96c-1.33-.01-2.64.03-3.67.14-.46-.2-.69-1.36-.19-1.36h9.32c.5,0,.29,1.16-.17,1.36Z"/>
    <path class="cls-2" d="M77.63,175.13c-.18.2-.46.38-.94.38s-.9-.22-1.02-.66l-1.2-3.95h-5.25l-1,3.33c-.06.22-.12.46-.12.66s.02.34.12.46c-.26.1-.5.16-.88.16-.62,0-.92-.24-.92-.74,0-.22.1-.58.2-.9l4.23-12.41c.46-.18.88-.26,1.32-.26s.82.14.96.6l4.01,12.39c.1.3.26.7.48.94ZM74.18,169.94l-2.35-7.66-2.32,7.66h4.67Z"/>
    <path class="cls-2" d="M81.34,174.33c1.8-.02,3.75-.28,5.21-.54.42.24.46,1.5-.08,1.5h-5.81c-.54,0-.92-.32-.92-.9l-.02-10.62c0-.78-.06-1.56-.26-2.13.16-.14.48-.36.94-.36.54,0,.92.32.92.88l.02,12.17Z"/>
    <path class="cls-2" d="M95.84,174.93l-.04-10.64c0-.78,0-1.8-.2-2.39,1.08-.1,3.01-.14,4.15-.14,3.69,0,5.79,2.29,5.79,7.05s-2.1,7.01-5.71,7.01h-3.07c-.58,0-.92-.34-.92-.88ZM99.75,175.06c2.61,0,4.03-1.72,4.03-6.17s-1.42-6.39-4.03-6.39h-2.35l.02,12.55h2.33Z"/>
    <path class="cls-2" d="M115.94,175.8h-6.35c-.54,0-.74-.32-.74-.9l-.02-10.46c0-.8.02-1.48-.13-2.06.07-.32.39-.41,1.07-.41h6.03c.5,0,.3,1.22-.16,1.42-1.74-.3-3.49-.25-5.39-.27v4.94h4.91c.08.32.08.66,0,.96h-4.91l.02,5.69c1.92-.02,4.15-.08,5.73-.34.44.26.48,1.44-.06,1.44Z"/>
    <path class="cls-2" d="M118.47,173.11c0-.76.36-1.3,1.48-1.14-.08.26-.08.52-.06.84.08,1.52,1.26,2.51,3.21,2.51,1.7,0,2.89-.8,2.89-2.43s-1.12-2.36-3.19-3.51c-2.3-1.28-3.83-2.26-3.83-4.39,0-2.32,1.96-3.27,4.23-3.27s3.97.9,3.97,2.48c0,.48-.18.86-.8.92-.18.06-.4.04-.62,0,.08-.3.06-.58,0-.84-.12-1.16-1.2-1.82-2.71-1.82-1.22,0-2.55.48-2.55,2.04s1.28,2.35,3.21,3.43c2.16,1.16,3.89,2.32,3.89,4.53,0,1.8-1.22,3.61-4.65,3.61-3.11,0-4.47-1.34-4.47-2.95Z"/>
    <path class="cls-2" d="M130.46,175.14l-.02-10.86c0-.78-.06-1.56-.26-2.13.16-.14.48-.36.94-.36.54,0,.94.32.94.88v10.86c0,.78.04,1.56.26,2.14-.16.14-.48.36-.94.36-.54,0-.92-.34-.92-.88Z"/>
    <path class="cls-2" d="M148.14,175.78c.2-.6.24-1.5.24-2.26l-.02-9.14c0-1-.04-1.82-.14-2.35.28-.26,1.1-.26,1.24-.1,2.14,3.07,6.17,8.88,7.78,11.66l-.34-9.94c-.06-.9.14-1.58.54-1.78.22-.04.48-.04.72.06-.02.38.04,1,.04,1.44v10.18c0,.98.02,1.68.1,2.23-.18.2-.86.28-1.14.14-2.91-3.55-6.19-8.76-7.78-11.46l.3,10.58c.02.6-.4.98-.82.98-.3,0-.54-.1-.72-.24Z"/>
    <path class="cls-2" d="M161.12,173.11c0-.76.36-1.3,1.48-1.14-.08.26-.08.52-.06.84.08,1.52,1.26,2.51,3.21,2.51,1.7,0,2.89-.8,2.89-2.43s-1.12-2.36-3.19-3.51c-2.3-1.28-3.83-2.26-3.83-4.39,0-2.32,1.96-3.27,4.23-3.27s3.97.9,3.97,2.48c0,.48-.18.86-.8.92-.18.06-.4.04-.62,0,.08-.3.06-.58,0-.84-.12-1.16-1.2-1.82-2.71-1.82-1.22,0-2.55.48-2.55,2.04s1.28,2.35,3.21,3.43c2.16,1.16,3.89,2.32,3.89,4.53,0,1.8-1.22,3.61-4.65,3.61-3.11,0-4.47-1.34-4.47-2.95Z"/>
  </g>
</svg>